<svg xmlns="http://www.w3.org/2000/svg" version="1.1" xmlns:xlink="http://www.w3.org/1999/xlink" xmlns:svgjs="http://svgjs.dev/svgjs" width="52.1497" height="51.3732">
	<svg id="SvgjsSvg1008" data-name="Layer 2" xmlns="http://www.w3.org/2000/svg" viewBox="0 0 52.1497 51.3732">
		<defs>
			<style>
				.cls-1 {
				fill: #0046ff;
				}
				
				.cls-2 {
				fill: #ffbe00;
				}
				
				.cls-3 {
				fill: #00ffd2;
				}
				
				.cls-4 {
				fill: #ff009d;
				}
			</style>
		</defs>
		<g id="SvgjsG1007">
			<g>
				<path class="cls-3" d="M45.4811,16.1799c-3.753-1.2194-7.9598-1.0043-11.7523,.9272-1.4632,.7452-2.7563,1.6953-3.8721,2.7901,3.1177-.5066,6.3424-.2685,9.4268,.7461,5.1168,1.6626,9.285,5.2092,11.7278,10.0012,.1826,.3583,.3427,.7093,.5028,1.0602,.9023-4.0042,.8407-8.1098-.1638-12.036-1.6837-1.6059-3.7051-2.7858-5.8691-3.4889Z">
				</path>
				<path class="cls-2" d="M39.4115,3.6823c-2.323,.0549-4.582,.6413-6.6126,1.6755-3.5088,1.7871-6.3328,4.9177-7.647,8.9625-.5052,1.5548-.7554,3.1302-.7509,4.6887,1.8428-2.5651,4.2812-4.6627,7.1742-6.1267,4.7929-2.4411,10.2534-2.8716,15.3701-1.209,.3719,.1209,.7402,.253,1.1048,.3964-.2085-.3169-.4171-.6338-.6293-.9394-.1781-.2571-.3599-.5031-.5416-.749-.1741-.2309-.3483-.4619-.5337-.6966-.1437-.1712-.2874-.3425-.4275-.525-.1891-.2234-.3894-.4504-.5935-.6662-.2457-.2791-.5064-.5507-.7707-.8109-.1852-.1972-.3853-.3867-.5853-.5763-.3058-.2861-.6228-.576-.9471-.8433-.3094-.2749-.6337-.5422-.9617-.7983l-.0113-.0037c-.6672-.5157-1.3568-1.0013-2.0835-1.4492-.0792-.0631-.1733-.1186-.2711-.1628-.0905-.0667-.1846-.1222-.2824-.1665Z">
				</path>
				<path class="cls-4" d="M31.7058,.6305l-.0338-.011c-.3604-.0797-.7131-.1445-1.0771-.213-.2589-.0467-.5179-.0935-.7841-.1177-.1015-.033-.2102-.0434-.3302-.0575-.0713-.0107-.1539-.0251-.2401-.0282-.7878-.1064-1.5789-.1642-2.3661-.1958-.0262,.0039-.0488-.0034-.0749,.0006-.1499,.0011-.2998,.0022-.4461-.0079-.2623,.002-.5246,.004-.7869,.0059-.4009,.0068-.8054,.0248-1.2137,.054s-.8165,.0586-1.2171,.1027c-.4043,.0555-.8086,.111-1.2129,.1664-.408,.0668-.8083,.1484-1.2087,.2301-.3592,.0702-.7108,.1552-1.0697,.2628-1.591,1.6753-2.7673,3.6848-3.4665,5.8367-1.219,3.7518-1.003,7.9574,.9298,11.7493,.7458,1.463,1.6963,2.7559,2.7953,3.8603-.5074-3.1169-.2735-6.3294,.7295-9.4164,1.662-5.115,5.22-9.2777,10.013-11.7188,.3583-.1825,.7093-.3425,1.0604-.5025Z">
				</path>
				<path class="cls-1" d="M11.9374,4.4463c-.1031,.2405-.1873,.4997-.2678,.7475-1.662,5.115-1.2302,10.5741,1.2125,15.3662,.1217,.2388,.2547,.4814,.3878,.7239l.0112,.0036c.0533,.1045,.0989,.1941,.1595,.276,.2965,.5447,.6378,1.0667,.9901,1.5548,.2728,.3876,.5605,.7676,.8668,1.1287,.1589,.2011,.3404,.4096,.5143,.6031,.1626,.1898,.3289,.3684,.4988,.5357,.1928,.2121,.3892,.4129,.6005,.6062,.3021,.2974,.6115,.5724,.9359,.8397,.166,.1411,.3319,.2822,.5015,.4121,.23,.1743,.4486,.345,.6823,.5081,.1922,.1372,.3844,.2744,.5801,.4002,.0415,.0259,.0716,.0482,.113,.0741,.1846,.1222,.3691,.2445,.5686,.3592,.4669,.2887,.9412,.5549,1.4339,.8022,.2445,.1293,.4928,.2473,.7447,.3541,.2145,.107,.4438,.2065,.6768,.2946,.2407,.1031,.4962,.1986,.7518,.2941,.233,.0882,.4697,.1651,.7064,.242,.2818,.0916,.5486,.1907,.8118,.3012l.0338,.011c.2068,.0921,.4136,.1842,.6168,.2875l.0113,.0037c.1617,.0775,.3085,.1626,.4553,.2476,.4139,.2217,.8132,.4884,1.1863,.7591,.211,.1558,.426,.3378,.6185,.5124,.215,.182,.4151,.3716,.6078,.5836,.0415,.0259,.0792,.0631,.1133,.1115,.1699,.1673,.3326,.3572,.4839,.5434,.0983,.1192,.193,.2496,.2877,.38,.193,.2495,.3787,.5216,.5419,.7864,.1592,.2386,.2999,.496,.4368,.7647,1.29,2.5492,1.5221,5.4396,.6435,8.1436s-2.7653,4.906-5.3037,6.1988c-2.3329,1.1976-5.0289,1.48-7.5786,.8135-.3905-.1019-.7286-.2118-1.0594-.3442-.064-.0332-.1203-.0516-.1766-.0699-.8041-.2861-1.5973-.6062-2.3646-.9676-.3798-.1732-.7635-.3727-1.1361-.5685-.3725-.1958-.7413-.4027-1.1065-.6211-.512-.3034-1.009-.6144-1.4838-.9555-.226-.1482-.4596-.3113-.6782-.482-1.4095-1.0309-2.7077-2.2126-3.8794-3.5151-.1739-.1935-.3328-.3946-.5067-.5881-.189-.2234-.3669-.4431-.5523-.6777-.1778-.2197-.3519-.4507-.5225-.6929-.1742-.231-.3334-.4696-.5039-.7118-.4814-.7045-.9404-1.4391-1.3511-2.2077-.0113-.0037-.0189-.0186-.0265-.0336-.1254-.2276-.2508-.4552-.3726-.6941-.1026-.1828-.1902-.3732-.2779-.5636-.0153-.0298-.0304-.0597-.0344-.0859-.1714-.3546-.3278-.7168-.4843-1.0791-.0304-.0597-.0532-.1045-.0724-.1605-.0228-.0448-.042-.1008-.0536-.142-.08-.1755-.1451-.3586-.2139-.5304-.0191-.056-.046-.127-.0651-.1831-.0496-.1157-.0916-.2166-.1223-.3137-.0305-.0597-.0459-.1271-.0652-.1831-.0651-.1831-.119-.3625-.184-.5456-.042-.1008-.0691-.2092-.0961-.3177-.0615-.1944-.1342-.3924-.1808-.5943-.0614-.1944-.1228-.3887-.1581-.587-.0229-.0448-.0344-.0859-.0347-.1234,0,0-.0113-.0037-.0076-.0149s-.0076-.0149-.004-.0262c-.0575-.1681-.0924-.329-.1238-.5011-.0462-.1646-.0739-.3479-.1164-.5236-.0818-.4003-.1636-.8006-.2304-1.2084-.0669-.4079-.1225-.8121-.1667-1.2126-.0443-.4005-.0737-.8087-.1067-1.2056-.0121-.116-.0167-.2172-.0175-.3296-.0136-.3034-.0308-.5954-.0331-.8951-.0031-.4121-.0064-.8242,.0017-1.2326,.0045-.3972,.0238-.8019,.0657-1.1994,.0135-.1949,.027-.3898,.0518-.5811,.0028-.1236,.0205-.2549,.0382-.3862,.0031-.0862,.0138-.1574,.0282-.24,.0031-.0862,.0174-.1687,.0354-.2625,.0105-.1087,.0172-.2062,.0388-.3112,.0248-.1912,.0532-.3938,.0892-.5814,.0611-.3414,.1222-.6828,.1945-1.0205,.018-.0938,.051-.1952,.069-.289,.0144-.0825,.0324-.1763,.0581-.2552,.0397-.1988,.083-.409,.1452-.6005-.0039-.0262-.0002-.0375,.0183-.0564,.073-.2628,.1496-.5368,.2337-.7959,.0543-.244,.1349-.4919,.2154-.7397,.0769-.2366,.1501-.4619,.2346-.6836,.033-.1014,.0622-.1916,.1028-.278,.0439-.1352,.0955-.2555,.1394-.3907,.0146-.045,.0405-.0864,.0551-.1316,.0991-.2667,.2132-.5411,.3312-.7892,.0403-.1239,.0882-.233,.151-.3495,.1068-.2518,.2211-.4887,.3354-.7255,.011-.0338,.022-.0676,.0442-.0978l.0073-.0226c.0295-.0527,.0441-.0977,.0737-.1504,.0442-.0978,.0885-.1955,.1403-.2783,.022-.0676,.0551-.1316,.0997-.1918,.011-.0338,.022-.0676,.0406-.0865,.0223-.0302,.0296-.0527,.0482-.0715,.0405-.0865,.0774-.1617,.1292-.2445,.0073-.0226,.0296-.0527,.0369-.0752,.0223-.0302,.0332-.0639,.0555-.0941,.011-.0338,.0183-.0563,.0368-.0752,.0073-.0225,.011-.0338,.0296-.0527,.0296-.0527,.0555-.094,.0851-.1468,.0406-.0864,.0923-.1693,.1405-.2408,.0146-.045,.0369-.0752,.074-.1129l.0037-.0113c.1851-.3011,.3738-.6134,.5701-.9109,.0332-.0639,.0777-.1242,.1073-.1769,.0445-.0603,.0741-.1129,.1186-.1732,.1482-.2259,.3076-.4481,.467-.6704,.1149-.1619,.2336-.3352,.3597-.4934s.2524-.3166,.3786-.4749c.2189-.2902,.4602-.5729,.7016-.8557,.1003-.1169,.2006-.2338,.3122-.347,.063-.0791,.1225-.147,.1969-.2225,.0631-.0792,.1338-.1434,.2081-.2188,.249-.2679,.5057-.5208,.7586-.7624,.0966-.1057,.2045-.2076,.3087-.2983,.093-.0944,.2008-.1963,.32-.2946,.2716-.2606,.562-.5025,.8376-.7368,.1155-.0871,.2197-.1777,.3352-.2648,.0186-.0189,.0336-.0265,.0522-.0454,.1676-.1323,.3352-.2647,.4992-.3858,.298-.227,.5961-.4541,.913-.6625,.3057-.2121,.6226-.4205,.9395-.6289-.0515,.1203-.0881,.2329-.1284,.3569ZM5.4408,41.1611c-.3734-.3082-.7321-.6614-1.061-1.0298,.3289,.3684,.6763,.7179,1.061,1.0298Z">
				</path>
			</g>
		</g>
	</svg>
</svg>
